<?xml version="1.0" encoding="UTF-8" standalone="no"?>
<!DOCTYPE svg PUBLIC "-//W3C//DTD SVG 1.1//EN" "http://www.w3.org/Graphics/SVG/1.1/DTD/svg11.dtd">
<svg width="100%" height="100%" viewBox="0 0 34 24" version="1.1" xmlns="http://www.w3.org/2000/svg" xmlns:xlink="http://www.w3.org/1999/xlink" xml:space="preserve" xmlns:serif="http://www.serif.com/" style="fill-rule:evenodd;clip-rule:evenodd;stroke-linejoin:round;stroke-miterlimit:2;">
    <g transform="matrix(1,0,0,1,-2661.05,-23.3211)">
        <g transform="matrix(1,0,0,1,663.24,0)">
            <g transform="matrix(0.301086,0,0,0.301086,1393.57,-4.52216)">
                <g transform="matrix(1,0,0,1,-663.88,8.96)">
                    <path d="M2782.01,91.64C2782.01,87.153 2778.38,83.516 2773.89,83.516C2753.34,83.516 2699.44,83.516 2678.89,83.516C2674.4,83.516 2670.76,87.153 2670.76,91.64C2670.76,91.641 2670.76,91.642 2670.76,91.642C2670.76,96.129 2674.4,99.766 2678.89,99.766C2699.44,99.766 2753.34,99.766 2773.89,99.766C2778.38,99.766 2782.01,96.129 2782.01,91.642C2782.01,91.642 2782.01,91.641 2782.01,91.64Z" style="fill:white;"/>
                </g>
                <g transform="matrix(1,0,0,1,-663.88,40.6257)">
                    <path d="M2782.01,91.64C2782.01,87.153 2778.38,83.516 2773.89,83.516C2753.34,83.516 2699.44,83.516 2678.89,83.516C2674.4,83.516 2670.76,87.153 2670.76,91.64C2670.76,91.641 2670.76,91.642 2670.76,91.642C2670.76,96.129 2674.4,99.766 2678.89,99.766C2699.44,99.766 2753.34,99.766 2773.89,99.766C2778.38,99.766 2782.01,96.129 2782.01,91.642C2782.01,91.642 2782.01,91.641 2782.01,91.64Z" style="fill:white;"/>
                </g>
                <g transform="matrix(1,0,0,1,-663.88,72.2914)">
                    <path d="M2782.01,91.64C2782.01,87.153 2778.38,83.516 2773.89,83.516C2753.34,83.516 2699.44,83.516 2678.89,83.516C2674.4,83.516 2670.76,87.153 2670.76,91.64C2670.76,91.641 2670.76,91.642 2670.76,91.642C2670.76,96.129 2674.4,99.766 2678.89,99.766C2699.44,99.766 2753.34,99.766 2773.89,99.766C2778.38,99.766 2782.01,96.129 2782.01,91.642C2782.01,91.642 2782.01,91.641 2782.01,91.64Z" style="fill:white;"/>
                </g>
            </g>
        </g>
    </g>
</svg>
