<?xml version="1.0" encoding="UTF-8" standalone="no"?><!DOCTYPE svg PUBLIC "-//W3C//DTD SVG 1.1//EN" "http://www.w3.org/Graphics/SVG/1.1/DTD/svg11.dtd"><svg width="100%" height="100%" viewBox="0 0 1127 19" version="1.1" xmlns="http://www.w3.org/2000/svg" xmlns:xlink="http://www.w3.org/1999/xlink" xml:space="preserve" xmlns:serif="http://www.serif.com/" style="fill-rule:evenodd;clip-rule:evenodd;stroke-linejoin:bevel;stroke-miterlimit:1.5;"><g id="ZickZack"><path id="ZickZack1" serif:id="ZickZack" d="M899.71,16.027l28.054,-14.027l28.053,14.027l28.054,-14.027l28.053,14.027l28.054,-14.027l28.053,14.027l28.053,-14.027l28.054,14.027" style="fill:none;stroke:#000;stroke-opacity:0.13;stroke-width:4px;"/><path id="ZickZack2" serif:id="ZickZack" d="M2,16.027l28.053,-14.027l28.054,14.027l28.053,-14.027l28.054,14.027l28.053,-14.027l28.054,14.027l28.053,-14.027l28.054,14.027" style="fill:none;stroke:#000;stroke-opacity:0.13;stroke-width:4px;"/><path id="ZickZack3" serif:id="ZickZack" d="M226.428,16.027l28.053,-14.027l28.053,14.027l28.054,-14.027l28.053,14.027l28.054,-14.027l28.053,14.027l28.054,-14.027l28.053,14.027" style="fill:none;stroke:#000;stroke-opacity:0.13;stroke-width:4px;"/><path id="ZickZack4" serif:id="ZickZack" d="M450.855,16.027l28.054,-14.027l28.053,14.027l28.053,-14.027l28.054,14.027l28.053,-14.027l28.054,14.027l28.053,-14.027l28.054,14.027" style="fill:none;stroke:#000;stroke-opacity:0.13;stroke-width:4px;"/><path id="ZickZack5" serif:id="ZickZack" d="M675.283,16.027l28.053,-14.027l28.054,14.027l28.053,-14.027l28.053,14.027l28.054,-14.027l28.053,14.027l28.054,-14.027l28.053,14.027" style="fill:none;stroke:#000;stroke-opacity:0.13;stroke-width:4px;"/></g></svg>