<?xml version="1.0" encoding="UTF-8" standalone="no"?>
<!DOCTYPE svg PUBLIC "-//W3C//DTD SVG 1.1//EN" "http://www.w3.org/Graphics/SVG/1.1/DTD/svg11.dtd">
<svg width="100%" height="100%" viewBox="0 0 39 24" version="1.1" xmlns="http://www.w3.org/2000/svg" xmlns:xlink="http://www.w3.org/1999/xlink" xml:space="preserve" xmlns:serif="http://www.serif.com/" style="fill-rule:evenodd;clip-rule:evenodd;stroke-linejoin:round;stroke-miterlimit:2;">
    <g transform="matrix(1,0,0,1,-1644.15,-5110.04)">
        <g transform="matrix(1,0,0,1.00093,-1970,4092.57)">
            <g transform="matrix(0.0566073,0,0,0.0566073,3433,999.922)">
                <g transform="matrix(2.64574,0,0,0.999075,286.249,-3667)">
                    <rect x="1101.34" y="3964.09" width="255.556" height="59.591" style="fill:rgb(98,56,4);"/>
                </g>
                <g transform="matrix(2.64574,0,0,0.999075,286.249,-3607.46)">
                    <rect x="1101.34" y="3964.09" width="255.556" height="59.591" style="fill:rgb(213,99,0);"/>
                </g>
                <g transform="matrix(2.64574,0,0,0.999075,286.249,-3547.92)">
                    <rect x="1101.34" y="3964.09" width="255.556" height="59.591" style="fill:rgb(254,221,99);"/>
                </g>
                <g transform="matrix(2.64574,0,0,0.999075,286.249,-3488.39)">
                    <rect x="1101.34" y="3964.09" width="255.556" height="59.591" style="fill:rgb(254,230,184);"/>
                </g>
                <g transform="matrix(2.64574,0,0,0.999075,286.249,-3428.85)">
                    <rect x="1101.34" y="3964.09" width="255.556" height="59.591" style="fill:white;"/>
                </g>
                <g transform="matrix(2.64574,0,0,0.999075,286.249,-3369.32)">
                    <rect x="1101.34" y="3964.09" width="255.556" height="59.591" style="fill:rgb(85,85,85);"/>
                </g>
                <g transform="matrix(2.64574,0,0,0.999075,286.249,-3309.78)">
                    <rect x="1101.34" y="3964.09" width="255.556" height="59.591"/>
                </g>
            </g>
        </g>
    </g>
</svg>
