<?xml version="1.0" encoding="UTF-8" standalone="no"?>
<!DOCTYPE svg PUBLIC "-//W3C//DTD SVG 1.1//EN" "http://www.w3.org/Graphics/SVG/1.1/DTD/svg11.dtd">
<svg width="100%" height="100%" viewBox="0 0 370 574" version="1.1" xmlns="http://www.w3.org/2000/svg" xmlns:xlink="http://www.w3.org/1999/xlink" xml:space="preserve" xmlns:serif="http://www.serif.com/" style="fill-rule:evenodd;clip-rule:evenodd;stroke-linejoin:round;stroke-miterlimit:2;">
    <g transform="matrix(1,0,0,1,-81.6942,-153.805)">
        <g transform="matrix(1,0,0,1,-17.1899,-239.226)">
            <g transform="matrix(5.16024e-17,0.842731,-0.842731,5.16024e-17,596.266,308.899)">
                <circle cx="107.53" cy="397.741" r="7.698" style="fill:white;fill-opacity:0.1;"/>
            </g>
            <g transform="matrix(5.16024e-17,0.842731,-0.842731,5.16024e-17,596.266,512.595)">
                <circle cx="107.53" cy="397.741" r="7.698" style="fill:white;fill-opacity:0.1;"/>
            </g>
            <g transform="matrix(5.16024e-17,0.842731,-0.842731,5.16024e-17,596.266,716.291)">
                <circle cx="107.53" cy="397.741" r="7.698" style="fill:white;fill-opacity:0.1;"/>
            </g>
            <g transform="matrix(5.16024e-17,0.842731,-0.842731,5.16024e-17,544.364,308.899)">
                <circle cx="107.53" cy="397.741" r="7.698" style="fill:white;fill-opacity:0.1;"/>
            </g>
            <g transform="matrix(5.16024e-17,0.842731,-0.842731,5.16024e-17,544.364,512.595)">
                <circle cx="107.53" cy="397.741" r="7.698" style="fill:white;fill-opacity:0.1;"/>
            </g>
            <g transform="matrix(5.16024e-17,0.842731,-0.842731,5.16024e-17,544.364,716.291)">
                <circle cx="107.53" cy="397.741" r="7.698" style="fill:white;fill-opacity:0.1;"/>
            </g>
            <g transform="matrix(5.16024e-17,0.842731,-0.842731,5.16024e-17,492.462,308.899)">
                <circle cx="107.53" cy="397.741" r="7.698" style="fill:white;fill-opacity:0.1;"/>
            </g>
            <g transform="matrix(5.16024e-17,0.842731,-0.842731,5.16024e-17,492.462,512.595)">
                <circle cx="107.53" cy="397.741" r="7.698" style="fill:white;fill-opacity:0.1;"/>
            </g>
            <g transform="matrix(5.16024e-17,0.842731,-0.842731,5.16024e-17,492.462,716.291)">
                <circle cx="107.53" cy="397.741" r="7.698" style="fill:white;fill-opacity:0.1;"/>
            </g>
            <g transform="matrix(5.16024e-17,0.842731,-0.842731,5.16024e-17,440.56,308.899)">
                <circle cx="107.53" cy="397.741" r="7.698" style="fill:white;fill-opacity:0.1;"/>
            </g>
            <g transform="matrix(5.16024e-17,0.842731,-0.842731,5.16024e-17,440.56,512.595)">
                <circle cx="107.53" cy="397.741" r="7.698" style="fill:white;fill-opacity:0.1;"/>
            </g>
            <g transform="matrix(5.16024e-17,0.842731,-0.842731,5.16024e-17,440.56,716.291)">
                <circle cx="107.53" cy="397.741" r="7.698" style="fill:white;fill-opacity:0.1;"/>
            </g>
            <g transform="matrix(5.16024e-17,0.842731,-0.842731,5.16024e-17,596.266,359.823)">
                <circle cx="107.53" cy="397.741" r="7.698" style="fill:white;fill-opacity:0.1;"/>
            </g>
            <g transform="matrix(5.16024e-17,0.842731,-0.842731,5.16024e-17,596.266,563.519)">
                <circle cx="107.53" cy="397.741" r="7.698" style="fill:white;fill-opacity:0.1;"/>
            </g>
            <g transform="matrix(5.16024e-17,0.842731,-0.842731,5.16024e-17,596.266,767.215)">
                <circle cx="107.53" cy="397.741" r="7.698" style="fill:white;fill-opacity:0.1;"/>
            </g>
            <g transform="matrix(5.16024e-17,0.842731,-0.842731,5.16024e-17,544.364,359.823)">
                <circle cx="107.53" cy="397.741" r="7.698" style="fill:white;fill-opacity:0.1;"/>
            </g>
            <g transform="matrix(5.16024e-17,0.842731,-0.842731,5.16024e-17,544.364,563.519)">
                <circle cx="107.53" cy="397.741" r="7.698" style="fill:white;fill-opacity:0.1;"/>
            </g>
            <g transform="matrix(5.16024e-17,0.842731,-0.842731,5.16024e-17,544.364,767.215)">
                <circle cx="107.53" cy="397.741" r="7.698" style="fill:white;fill-opacity:0.1;"/>
            </g>
            <g transform="matrix(5.16024e-17,0.842731,-0.842731,5.16024e-17,492.462,359.823)">
                <circle cx="107.53" cy="397.741" r="7.698" style="fill:white;fill-opacity:0.1;"/>
            </g>
            <g transform="matrix(5.16024e-17,0.842731,-0.842731,5.16024e-17,492.462,563.519)">
                <circle cx="107.53" cy="397.741" r="7.698" style="fill:white;fill-opacity:0.1;"/>
            </g>
            <g transform="matrix(5.16024e-17,0.842731,-0.842731,5.16024e-17,492.462,767.215)">
                <circle cx="107.53" cy="397.741" r="7.698" style="fill:white;fill-opacity:0.1;"/>
            </g>
            <g transform="matrix(5.16024e-17,0.842731,-0.842731,5.16024e-17,440.56,359.823)">
                <circle cx="107.53" cy="397.741" r="7.698" style="fill:white;fill-opacity:0.1;"/>
            </g>
            <g transform="matrix(5.16024e-17,0.842731,-0.842731,5.16024e-17,440.56,563.519)">
                <circle cx="107.53" cy="397.741" r="7.698" style="fill:white;fill-opacity:0.1;"/>
            </g>
            <g transform="matrix(5.16024e-17,0.842731,-0.842731,5.16024e-17,440.56,767.215)">
                <circle cx="107.53" cy="397.741" r="7.698" style="fill:white;fill-opacity:0.1;"/>
            </g>
            <g transform="matrix(5.16024e-17,0.842731,-0.842731,5.16024e-17,596.266,410.747)">
                <circle cx="107.53" cy="397.741" r="7.698" style="fill:white;fill-opacity:0.1;"/>
            </g>
            <g transform="matrix(5.16024e-17,0.842731,-0.842731,5.16024e-17,596.266,614.443)">
                <circle cx="107.53" cy="397.741" r="7.698" style="fill:white;fill-opacity:0.1;"/>
            </g>
            <g transform="matrix(5.16024e-17,0.842731,-0.842731,5.16024e-17,596.266,818.139)">
                <circle cx="107.53" cy="397.741" r="7.698" style="fill:white;fill-opacity:0.1;"/>
            </g>
            <g transform="matrix(5.16024e-17,0.842731,-0.842731,5.16024e-17,544.364,410.747)">
                <circle cx="107.53" cy="397.741" r="7.698" style="fill:white;fill-opacity:0.1;"/>
            </g>
            <g transform="matrix(5.16024e-17,0.842731,-0.842731,5.16024e-17,544.364,614.443)">
                <circle cx="107.53" cy="397.741" r="7.698" style="fill:white;fill-opacity:0.1;"/>
            </g>
            <g transform="matrix(5.16024e-17,0.842731,-0.842731,5.16024e-17,544.364,818.139)">
                <circle cx="107.53" cy="397.741" r="7.698" style="fill:white;fill-opacity:0.1;"/>
            </g>
            <g transform="matrix(5.16024e-17,0.842731,-0.842731,5.16024e-17,492.462,410.747)">
                <circle cx="107.53" cy="397.741" r="7.698" style="fill:white;fill-opacity:0.1;"/>
            </g>
            <g transform="matrix(5.16024e-17,0.842731,-0.842731,5.16024e-17,492.462,614.443)">
                <circle cx="107.53" cy="397.741" r="7.698" style="fill:white;fill-opacity:0.1;"/>
            </g>
            <g transform="matrix(5.16024e-17,0.842731,-0.842731,5.16024e-17,492.462,818.139)">
                <circle cx="107.53" cy="397.741" r="7.698" style="fill:white;fill-opacity:0.1;"/>
            </g>
            <g transform="matrix(5.16024e-17,0.842731,-0.842731,5.16024e-17,440.56,410.747)">
                <circle cx="107.53" cy="397.741" r="7.698" style="fill:white;fill-opacity:0.1;"/>
            </g>
            <g transform="matrix(5.16024e-17,0.842731,-0.842731,5.16024e-17,440.56,614.443)">
                <circle cx="107.53" cy="397.741" r="7.698" style="fill:white;fill-opacity:0.1;"/>
            </g>
            <g transform="matrix(5.16024e-17,0.842731,-0.842731,5.16024e-17,440.56,818.139)">
                <circle cx="107.53" cy="397.741" r="7.698" style="fill:white;fill-opacity:0.1;"/>
            </g>
            <g transform="matrix(5.16024e-17,0.842731,-0.842731,5.16024e-17,596.266,461.671)">
                <circle cx="107.53" cy="397.741" r="7.698" style="fill:white;fill-opacity:0.1;"/>
            </g>
            <g transform="matrix(5.16024e-17,0.842731,-0.842731,5.16024e-17,596.266,665.367)">
                <circle cx="107.53" cy="397.741" r="7.698" style="fill:white;fill-opacity:0.1;"/>
            </g>
            <g transform="matrix(5.16024e-17,0.842731,-0.842731,5.16024e-17,596.266,869.063)">
                <circle cx="107.53" cy="397.741" r="7.698" style="fill:white;fill-opacity:0.1;"/>
            </g>
            <g transform="matrix(5.16024e-17,0.842731,-0.842731,5.16024e-17,544.364,461.671)">
                <circle cx="107.53" cy="397.741" r="7.698" style="fill:white;fill-opacity:0.1;"/>
            </g>
            <g transform="matrix(5.16024e-17,0.842731,-0.842731,5.16024e-17,544.364,665.367)">
                <circle cx="107.53" cy="397.741" r="7.698" style="fill:white;fill-opacity:0.1;"/>
            </g>
            <g transform="matrix(5.16024e-17,0.842731,-0.842731,5.16024e-17,544.364,869.063)">
                <circle cx="107.53" cy="397.741" r="7.698" style="fill:white;fill-opacity:0.1;"/>
            </g>
            <g transform="matrix(5.16024e-17,0.842731,-0.842731,5.16024e-17,492.462,461.671)">
                <circle cx="107.53" cy="397.741" r="7.698" style="fill:white;fill-opacity:0.1;"/>
            </g>
            <g transform="matrix(5.16024e-17,0.842731,-0.842731,5.16024e-17,492.462,665.367)">
                <circle cx="107.53" cy="397.741" r="7.698" style="fill:white;fill-opacity:0.1;"/>
            </g>
            <g transform="matrix(5.16024e-17,0.842731,-0.842731,5.16024e-17,492.462,869.063)">
                <circle cx="107.53" cy="397.741" r="7.698" style="fill:white;fill-opacity:0.1;"/>
            </g>
            <g transform="matrix(5.16024e-17,0.842731,-0.842731,5.16024e-17,440.56,461.671)">
                <circle cx="107.53" cy="397.741" r="7.698" style="fill:white;fill-opacity:0.1;"/>
            </g>
            <g transform="matrix(5.16024e-17,0.842731,-0.842731,5.16024e-17,440.56,665.367)">
                <circle cx="107.53" cy="397.741" r="7.698" style="fill:white;fill-opacity:0.1;"/>
            </g>
            <g transform="matrix(5.16024e-17,0.842731,-0.842731,5.16024e-17,440.56,869.063)">
                <circle cx="107.53" cy="397.741" r="7.698" style="fill:white;fill-opacity:0.1;"/>
            </g>
            <g transform="matrix(5.16024e-17,0.842731,-0.842731,5.16024e-17,796.815,308.899)">
                <circle cx="107.53" cy="397.741" r="7.698" style="fill:white;fill-opacity:0.1;"/>
            </g>
            <g transform="matrix(5.16024e-17,0.842731,-0.842731,5.16024e-17,796.815,512.595)">
                <circle cx="107.53" cy="397.741" r="7.698" style="fill:white;fill-opacity:0.1;"/>
            </g>
            <g transform="matrix(5.16024e-17,0.842731,-0.842731,5.16024e-17,796.815,716.291)">
                <circle cx="107.53" cy="397.741" r="7.698" style="fill:white;fill-opacity:0.1;"/>
            </g>
            <g transform="matrix(5.16024e-17,0.842731,-0.842731,5.16024e-17,744.913,308.899)">
                <circle cx="107.53" cy="397.741" r="7.698" style="fill:white;fill-opacity:0.1;"/>
            </g>
            <g transform="matrix(5.16024e-17,0.842731,-0.842731,5.16024e-17,744.913,512.595)">
                <circle cx="107.53" cy="397.741" r="7.698" style="fill:white;fill-opacity:0.1;"/>
            </g>
            <g transform="matrix(5.16024e-17,0.842731,-0.842731,5.16024e-17,744.913,716.291)">
                <circle cx="107.53" cy="397.741" r="7.698" style="fill:white;fill-opacity:0.1;"/>
            </g>
            <g transform="matrix(5.16024e-17,0.842731,-0.842731,5.16024e-17,693.011,308.899)">
                <circle cx="107.53" cy="397.741" r="7.698" style="fill:white;fill-opacity:0.1;"/>
            </g>
            <g transform="matrix(5.16024e-17,0.842731,-0.842731,5.16024e-17,693.011,512.595)">
                <circle cx="107.53" cy="397.741" r="7.698" style="fill:white;fill-opacity:0.1;"/>
            </g>
            <g transform="matrix(5.16024e-17,0.842731,-0.842731,5.16024e-17,693.011,716.291)">
                <circle cx="107.53" cy="397.741" r="7.698" style="fill:white;fill-opacity:0.1;"/>
            </g>
            <g transform="matrix(5.16024e-17,0.842731,-0.842731,5.16024e-17,641.109,308.899)">
                <circle cx="107.53" cy="397.741" r="7.698" style="fill:white;fill-opacity:0.1;"/>
            </g>
            <g transform="matrix(5.16024e-17,0.842731,-0.842731,5.16024e-17,641.109,512.595)">
                <circle cx="107.53" cy="397.741" r="7.698" style="fill:white;fill-opacity:0.1;"/>
            </g>
            <g transform="matrix(5.16024e-17,0.842731,-0.842731,5.16024e-17,641.109,716.291)">
                <circle cx="107.53" cy="397.741" r="7.698" style="fill:white;fill-opacity:0.1;"/>
            </g>
            <g transform="matrix(5.16024e-17,0.842731,-0.842731,5.16024e-17,796.815,359.823)">
                <circle cx="107.53" cy="397.741" r="7.698" style="fill:white;fill-opacity:0.1;"/>
            </g>
            <g transform="matrix(5.16024e-17,0.842731,-0.842731,5.16024e-17,796.815,563.519)">
                <circle cx="107.53" cy="397.741" r="7.698" style="fill:white;fill-opacity:0.1;"/>
            </g>
            <g transform="matrix(5.16024e-17,0.842731,-0.842731,5.16024e-17,796.815,767.215)">
                <circle cx="107.53" cy="397.741" r="7.698" style="fill:white;fill-opacity:0.1;"/>
            </g>
            <g transform="matrix(5.16024e-17,0.842731,-0.842731,5.16024e-17,744.913,359.823)">
                <circle cx="107.53" cy="397.741" r="7.698" style="fill:white;fill-opacity:0.1;"/>
            </g>
            <g transform="matrix(5.16024e-17,0.842731,-0.842731,5.16024e-17,744.913,563.519)">
                <circle cx="107.53" cy="397.741" r="7.698" style="fill:white;fill-opacity:0.1;"/>
            </g>
            <g transform="matrix(5.16024e-17,0.842731,-0.842731,5.16024e-17,744.913,767.215)">
                <circle cx="107.53" cy="397.741" r="7.698" style="fill:white;fill-opacity:0.1;"/>
            </g>
            <g transform="matrix(5.16024e-17,0.842731,-0.842731,5.16024e-17,693.011,359.823)">
                <circle cx="107.53" cy="397.741" r="7.698" style="fill:white;fill-opacity:0.1;"/>
            </g>
            <g transform="matrix(5.16024e-17,0.842731,-0.842731,5.16024e-17,693.011,563.519)">
                <circle cx="107.53" cy="397.741" r="7.698" style="fill:white;fill-opacity:0.1;"/>
            </g>
            <g transform="matrix(5.16024e-17,0.842731,-0.842731,5.16024e-17,693.011,767.215)">
                <circle cx="107.53" cy="397.741" r="7.698" style="fill:white;fill-opacity:0.1;"/>
            </g>
            <g transform="matrix(5.16024e-17,0.842731,-0.842731,5.16024e-17,641.109,359.823)">
                <circle cx="107.53" cy="397.741" r="7.698" style="fill:white;fill-opacity:0.1;"/>
            </g>
            <g transform="matrix(5.16024e-17,0.842731,-0.842731,5.16024e-17,641.109,563.519)">
                <circle cx="107.53" cy="397.741" r="7.698" style="fill:white;fill-opacity:0.1;"/>
            </g>
            <g transform="matrix(5.16024e-17,0.842731,-0.842731,5.16024e-17,641.109,767.215)">
                <circle cx="107.53" cy="397.741" r="7.698" style="fill:white;fill-opacity:0.1;"/>
            </g>
            <g transform="matrix(5.16024e-17,0.842731,-0.842731,5.16024e-17,796.815,410.747)">
                <circle cx="107.53" cy="397.741" r="7.698" style="fill:white;fill-opacity:0.1;"/>
            </g>
            <g transform="matrix(5.16024e-17,0.842731,-0.842731,5.16024e-17,796.815,614.443)">
                <circle cx="107.53" cy="397.741" r="7.698" style="fill:white;fill-opacity:0.1;"/>
            </g>
            <g transform="matrix(5.16024e-17,0.842731,-0.842731,5.16024e-17,796.815,818.139)">
                <circle cx="107.53" cy="397.741" r="7.698" style="fill:white;fill-opacity:0.1;"/>
            </g>
            <g transform="matrix(5.16024e-17,0.842731,-0.842731,5.16024e-17,744.913,410.747)">
                <circle cx="107.53" cy="397.741" r="7.698" style="fill:white;fill-opacity:0.1;"/>
            </g>
            <g transform="matrix(5.16024e-17,0.842731,-0.842731,5.16024e-17,744.913,614.443)">
                <circle cx="107.53" cy="397.741" r="7.698" style="fill:white;fill-opacity:0.1;"/>
            </g>
            <g transform="matrix(5.16024e-17,0.842731,-0.842731,5.16024e-17,744.913,818.139)">
                <circle cx="107.53" cy="397.741" r="7.698" style="fill:white;fill-opacity:0.1;"/>
            </g>
            <g transform="matrix(5.16024e-17,0.842731,-0.842731,5.16024e-17,693.011,410.747)">
                <circle cx="107.53" cy="397.741" r="7.698" style="fill:white;fill-opacity:0.1;"/>
            </g>
            <g transform="matrix(5.16024e-17,0.842731,-0.842731,5.16024e-17,693.011,614.443)">
                <circle cx="107.53" cy="397.741" r="7.698" style="fill:white;fill-opacity:0.1;"/>
            </g>
            <g transform="matrix(5.16024e-17,0.842731,-0.842731,5.16024e-17,693.011,818.139)">
                <circle cx="107.53" cy="397.741" r="7.698" style="fill:white;fill-opacity:0.1;"/>
            </g>
            <g transform="matrix(5.16024e-17,0.842731,-0.842731,5.16024e-17,641.109,410.747)">
                <circle cx="107.53" cy="397.741" r="7.698" style="fill:white;fill-opacity:0.1;"/>
            </g>
            <g transform="matrix(5.16024e-17,0.842731,-0.842731,5.16024e-17,641.109,614.443)">
                <circle cx="107.53" cy="397.741" r="7.698" style="fill:white;fill-opacity:0.1;"/>
            </g>
            <g transform="matrix(5.16024e-17,0.842731,-0.842731,5.16024e-17,641.109,818.139)">
                <circle cx="107.53" cy="397.741" r="7.698" style="fill:white;fill-opacity:0.1;"/>
            </g>
            <g transform="matrix(5.16024e-17,0.842731,-0.842731,5.16024e-17,796.815,461.671)">
                <circle cx="107.53" cy="397.741" r="7.698" style="fill:white;fill-opacity:0.1;"/>
            </g>
            <g transform="matrix(5.16024e-17,0.842731,-0.842731,5.16024e-17,796.815,665.367)">
                <circle cx="107.53" cy="397.741" r="7.698" style="fill:white;fill-opacity:0.1;"/>
            </g>
            <g transform="matrix(5.16024e-17,0.842731,-0.842731,5.16024e-17,796.815,869.063)">
                <circle cx="107.53" cy="397.741" r="7.698" style="fill:white;fill-opacity:0.1;"/>
            </g>
            <g transform="matrix(5.16024e-17,0.842731,-0.842731,5.16024e-17,744.913,461.671)">
                <circle cx="107.53" cy="397.741" r="7.698" style="fill:white;fill-opacity:0.1;"/>
            </g>
            <g transform="matrix(5.16024e-17,0.842731,-0.842731,5.16024e-17,744.913,665.367)">
                <circle cx="107.53" cy="397.741" r="7.698" style="fill:white;fill-opacity:0.1;"/>
            </g>
            <g transform="matrix(5.16024e-17,0.842731,-0.842731,5.16024e-17,744.913,869.063)">
                <circle cx="107.53" cy="397.741" r="7.698" style="fill:white;fill-opacity:0.1;"/>
            </g>
            <g transform="matrix(5.16024e-17,0.842731,-0.842731,5.16024e-17,693.011,461.671)">
                <circle cx="107.53" cy="397.741" r="7.698" style="fill:white;fill-opacity:0.1;"/>
            </g>
            <g transform="matrix(5.16024e-17,0.842731,-0.842731,5.16024e-17,693.011,665.367)">
                <circle cx="107.53" cy="397.741" r="7.698" style="fill:white;fill-opacity:0.1;"/>
            </g>
            <g transform="matrix(5.16024e-17,0.842731,-0.842731,5.16024e-17,693.011,869.063)">
                <circle cx="107.53" cy="397.741" r="7.698" style="fill:white;fill-opacity:0.1;"/>
            </g>
            <g transform="matrix(5.16024e-17,0.842731,-0.842731,5.16024e-17,641.109,461.671)">
                <circle cx="107.53" cy="397.741" r="7.698" style="fill:white;fill-opacity:0.1;"/>
            </g>
            <g transform="matrix(5.16024e-17,0.842731,-0.842731,5.16024e-17,641.109,665.367)">
                <circle cx="107.53" cy="397.741" r="7.698" style="fill:white;fill-opacity:0.1;"/>
            </g>
            <g transform="matrix(5.16024e-17,0.842731,-0.842731,5.16024e-17,641.109,869.063)">
                <circle cx="107.53" cy="397.741" r="7.698" style="fill:white;fill-opacity:0.1;"/>
            </g>
        </g>
    </g>
</svg>
