<?xml version="1.0" encoding="UTF-8" standalone="no"?>
<!DOCTYPE svg PUBLIC "-//W3C//DTD SVG 1.1//EN" "http://www.w3.org/Graphics/SVG/1.1/DTD/svg11.dtd">
<svg width="100%" height="100%" viewBox="0 0 604 420" version="1.1" xmlns="http://www.w3.org/2000/svg" xmlns:xlink="http://www.w3.org/1999/xlink" xml:space="preserve" xmlns:serif="http://www.serif.com/" style="fill-rule:evenodd;clip-rule:evenodd;stroke-linejoin:round;stroke-miterlimit:2;">
    <g transform="matrix(1,0,0,1,-238.2,-330)">
        <g transform="matrix(1,0,0,1,144.771,-258.188)">
            <g transform="matrix(600,0,0,600,92.2295,1008.19)">
                <path d="M0.103,-0.7L0.368,-0.7C0.436,-0.7 0.489,-0.683 0.526,-0.649C0.563,-0.614 0.582,-0.569 0.582,-0.512C0.582,-0.503 0.581,-0.493 0.58,-0.483C0.579,-0.473 0.577,-0.463 0.575,-0.452L0.531,-0.242C0.522,-0.199 0.509,-0.163 0.493,-0.133C0.477,-0.102 0.457,-0.077 0.432,-0.058C0.406,-0.038 0.377,-0.023 0.343,-0.014C0.308,-0.005 0.268,0 0.223,0L0.002,0L0.002,-0.126L0.074,-0.126L0.169,-0.574L0.103,-0.574L0.103,-0.7ZM0.25,-0.126C0.296,-0.126 0.331,-0.137 0.354,-0.159C0.377,-0.18 0.393,-0.214 0.402,-0.26L0.443,-0.452C0.444,-0.457 0.446,-0.464 0.447,-0.47C0.448,-0.477 0.448,-0.484 0.448,-0.49C0.448,-0.517 0.44,-0.538 0.423,-0.553C0.406,-0.567 0.38,-0.574 0.345,-0.574L0.301,-0.574L0.206,-0.126L0.25,-0.126Z" style="fill-rule:nonzero;"/>
            </g>
            <g transform="matrix(600,0,0,600,412.029,1008.19)">
                <path d="M0.015,-0.012L0.161,-0.7L0.293,-0.7L0.171,-0.126L0.475,-0.126L0.475,0L0.015,0L0.015,-0.012Z" style="fill:rgb(74,152,243);fill-rule:nonzero;"/>
            </g>
        </g>
    </g>
</svg>
