<?xml version="1.0" encoding="UTF-8" standalone="no"?><!DOCTYPE svg PUBLIC "-//W3C//DTD SVG 1.1//EN" "http://www.w3.org/Graphics/SVG/1.1/DTD/svg11.dtd"><svg width="100%" height="100%" viewBox="0 0 1068 1068" version="1.1" xmlns="http://www.w3.org/2000/svg" xmlns:xlink="http://www.w3.org/1999/xlink" xml:space="preserve" xmlns:serif="http://www.serif.com/" style="fill-rule:evenodd;clip-rule:evenodd;stroke-linejoin:round;stroke-miterlimit:2;"><circle cx="533.752" cy="533.752" r="533.752" style="fill:#4fdfbf;"/><path d="M551.946,441.521l201.684,54.01l-143.055,130.452l-58.629,-184.462Zm-95.052,-4.271l58.663,184.496l-201.684,-54.01l143.021,-130.486Zm75.104,-27.205c-7.135,0.278 -12.673,6.285 -12.378,13.403c0.052,1.146 0.243,2.292 0.59,3.403l67.969,213.871l-165.816,151.25c-5.261,4.792 -5.608,12.969 -0.816,18.212c1.666,1.806 3.802,3.125 6.18,3.75l247.205,66.267c6.875,1.841 13.959,-2.257 15.799,-9.132c0.642,-2.395 0.573,-4.913 -0.174,-7.257l-67.969,-213.854l165.816,-151.25c5.278,-4.774 5.66,-12.934 0.868,-18.212c-1.666,-1.84 -3.836,-3.159 -6.215,-3.784l-247.239,-66.268c-1.25,-0.329 -2.535,-0.451 -3.82,-0.399m-143.281,-227.413c-7.135,0.278 -12.674,6.25 -12.396,13.368c0.035,1.18 0.226,2.326 0.59,3.437l67.969,213.872l-165.816,151.25c-5.26,4.809 -5.625,12.951 -0.816,18.229c1.649,1.806 3.802,3.108 6.163,3.75l247.257,66.25c6.893,1.823 13.959,-2.257 15.782,-9.149c0.642,-2.361 0.572,-4.879 -0.157,-7.205l-67.968,-213.889l165.816,-151.233c5.243,-4.809 5.607,-12.968 0.798,-18.229c-1.667,-1.805 -3.819,-3.107 -6.18,-3.75l-247.24,-66.25c-1.233,-0.347 -2.517,-0.503 -3.802,-0.451" style="fill:#fff;fill-rule:nonzero;"/></svg>