<?xml version="1.0" encoding="UTF-8" standalone="no"?>
<!DOCTYPE svg PUBLIC "-//W3C//DTD SVG 1.1//EN" "http://www.w3.org/Graphics/SVG/1.1/DTD/svg11.dtd">
<svg width="100%" height="100%" viewBox="0 0 328 128" version="1.1" xmlns="http://www.w3.org/2000/svg" xmlns:xlink="http://www.w3.org/1999/xlink" xml:space="preserve" xmlns:serif="http://www.serif.com/" style="fill-rule:evenodd;clip-rule:evenodd;stroke-linejoin:bevel;stroke-miterlimit:1.5;">
    <g transform="matrix(1,0,0,1,-1376.04,-1363.26)">
        <g transform="matrix(1,0,0,1,-1970,1180.02)">
            <g transform="matrix(1,0,0,1,12.8698,-99.3652)">
                <g id="ZickZack" transform="matrix(1,0,0,1,3237.17,-293.4)">
                    <path d="M100,700L140,660L180,700L220,660L260,700L300,660L340,700L380,660L420,700" style="fill:none;stroke:black;stroke-opacity:0.16;stroke-width:8px;"/>
                </g>
                <g id="ZickZack1" serif:id="ZickZack" transform="matrix(1,0,0,1,3237.17,-333.4)">
                    <path d="M100,700L140,660L180,700L220,660L260,700L300,660L340,700L380,660L420,700" style="fill:none;stroke:black;stroke-opacity:0.16;stroke-width:8px;"/>
                </g>
                <g id="ZickZack2" serif:id="ZickZack" transform="matrix(1,0,0,1,3237.17,-373.4)">
                    <path d="M100,700L140,660L180,700L220,660L260,700L300,660L340,700L380,660L420,700" style="fill:none;stroke:black;stroke-opacity:0.16;stroke-width:8px;"/>
                </g>
            </g>
        </g>
    </g>
</svg>
